<svg t="1590477010417" class="icon" viewBox="0 0 1024 1024" version="1.1" xmlns="http://www.w3.org/2000/svg" p-id="1228"
     xmlns:xlink="http://www.w3.org/1999/xlink">
  <defs>
    <style type="text/css"></style>
  </defs>
  <path
    d="M478.1 327.9c-10-9.6-21.8-17.2-35.3-22.9-13.6-5.7-28-8.6-43.2-8.6-15.7 0-30.3 2.8-43.9 8.6-13.6 5.7-25.3 13.3-35.3 22.9-10 9.6-18 20.9-23.9 33.9-6 13-8.9 26.8-8.9 41.4 0 14.6 3 28.4 8.9 41.4 6 13 13.9 24.4 23.9 34.2 10 9.8 21.8 17.6 35.3 23.3 13.6 5.7 28.2 8.6 43.9 8.6 15.2 0 29.6-2.9 43.2-8.6 13.6-5.7 25.3-13.5 35.3-23.3 10-9.8 18-21.2 23.9-34.2 5.9-13 8.9-26.8 8.9-41.4 0-14.6-3-28.4-8.9-41.4-5.9-13.1-13.9-24.4-23.9-33.9z m391.3-203.3H152.5c-48.9 0-88.5 38-88.5 84.9V811c0 46.9 39.6 84.9 88.5 84.9h716.8c48.9 0 88.5-38 88.5-84.9V209.5c0.1-46.9-39.5-84.9-88.4-84.9z m-0.7 570.1c-9.5-21-20.6-42.4-33.2-64.3-12.6-21.9-26.4-41.7-41.4-59.5-15-17.8-31.3-32.3-48.9-43.5-17.6-11.2-35.9-16.8-55-16.8-22.4 0-41.4 4.2-57.1 12.6-15.7 8.5-29.3 19-40.7 31.8-11.4 12.8-21.7 26.5-30.7 41.1-9 14.6-18.1 28.3-27.1 41.1S515.7 660.6 505 669c-10.7 8.4-23.4 12.6-38.2 12.6-14.8 0-27.4-1-37.8-3.1-10.5-2.1-19.9-4.7-28.2-7.9s-16.1-6.7-23.2-10.6c-7.1-3.9-14.9-7.4-23.2-10.6-8.3-3.2-17.8-5.8-28.6-7.9-10.7-2.1-23.4-3.1-38.2-3.1-12.4 0-24.6 3.1-36.8 9.2-12.1 6.2-23.9 14-35.3 23.6-11.4 9.6-22.4 20.3-32.8 32.2-10.5 11.9-20 23.7-28.6 35.6V248c0-21 17.8-38 39.7-38H829c21.9 0 39.7 17 39.7 38v446.7z"
    p-id="1229"></path>
</svg>
